<!DOCTYPE svg PUBLIC "-//W3C//DTD SVG 1.1//EN" "http://www.w3.org/Graphics/SVG/1.1/DTD/svg11.dtd">
<!-- Uploaded to: SVG Repo, www.svgrepo.com, Transformed by: SVG Repo Mixer Tools -->
<svg fill="#ff00a2" height="800px" width="800px" version="1.1" id="Capa_1" xmlns="http://www.w3.org/2000/svg" xmlns:xlink="http://www.w3.org/1999/xlink" viewBox="0 0 470 470" xml:space="preserve" stroke="#ff00a2">
<g id="SVGRepo_bgCarrier" stroke-width="0"/>
<g id="SVGRepo_tracerCarrier" stroke-linecap="round" stroke-linejoin="round"/>
<g id="SVGRepo_iconCarrier"> <g> <path d="M339.3,0C297.479,0,258.553,20.684,235,54.708C211.448,20.684,172.522,0,130.7,0C60.759,0,3.858,56.901,3.858,126.842 c0,27.856,8.865,54.296,25.638,76.461l199.523,263.722c1.417,1.874,3.631,2.975,5.981,2.975s4.563-1.101,5.981-2.975 l90.712-119.899c2.499-3.303,1.847-8.007-1.456-10.506c-3.304-2.499-8.006-1.847-10.507,1.456L235,450.069L41.458,194.253 c-14.785-19.539-22.6-42.849-22.6-67.411C18.858,65.172,69.03,15,130.7,15c40.539,0,77.994,22.045,97.747,57.533 c1.324,2.378,3.832,3.852,6.553,3.852s5.229-1.474,6.553-3.852C261.308,37.045,298.762,15,339.3,15 c61.67,0,111.842,50.172,111.842,111.842c0,24.562-7.814,47.872-22.6,67.412L337.83,314.152c-2.499,3.303-1.847,8.007,1.456,10.506 c3.306,2.5,8.009,1.848,10.507-1.456l90.711-119.898c16.772-22.166,25.638-48.606,25.638-76.462C466.142,56.901,409.24,0,339.3,0z"/> <path d="M202.982,330.459c12.031,0,23.466-4.674,32.019-12.823c8.553,8.149,19.987,12.823,32.019,12.823 c25.594,0,46.416-20.822,46.416-46.416c0-20.426-13.221-38.126-32.204-44.191c-2.114-23.649-22.041-42.248-46.23-42.248 s-44.116,18.599-46.23,42.248c-18.983,6.065-32.204,23.765-32.204,44.192C156.566,309.637,177.388,330.459,202.982,330.459z M197.441,253.125c3.701-0.658,6.344-3.955,6.18-7.711c-0.02-0.463-0.036-0.926-0.036-1.395c0-17.323,14.093-31.416,31.416-31.416 c17.323,0,31.416,14.093,31.416,31.416c0,0.47-0.018,0.936-0.037,1.401c-0.16,3.753,2.481,7.047,6.181,7.705 c14.993,2.666,25.875,15.668,25.875,30.918c0,17.323-14.093,31.416-31.416,31.416c-10.307,0-19.971-5.074-25.851-13.572 c-1.401-2.024-3.706-3.232-6.168-3.232s-4.767,1.208-6.167,3.233c-5.88,8.498-15.544,13.572-25.851,13.572 c-17.323,0-31.416-14.093-31.416-31.416C171.566,268.794,182.448,255.791,197.441,253.125z"/> <path d="M212.211,162.197c3.587,2.069,8.174,0.837,10.243-2.753c6.015-10.437,7.332-24.386,3.611-38.272 c-6.531-24.371-25.944-39.626-44.198-34.74c-18.253,4.891-27.437,27.813-20.907,52.185c3.721,13.886,11.836,25.309,22.263,31.339 c1.183,0.684,2.474,1.009,3.748,1.009c2.59,0,5.109-1.343,6.499-3.747c2.074-3.585,0.848-8.173-2.737-10.247 c-6.91-3.997-12.624-12.31-15.284-22.237c-4.208-15.705,0.509-31.19,10.3-33.813c9.792-2.626,21.619,8.428,25.827,24.133 c2.66,9.928,1.869,19.983-2.118,26.899C207.389,155.542,208.622,160.128,212.211,162.197z"/> <path d="M123.628,172.206c4.948-3.464,11.272-1.944,14.601-0.729c6.589,2.406,13.121,7.717,17.922,14.574 c5.896,8.419,8.591,18.139,7.21,26.001c-0.717,4.08,2.01,7.968,6.089,8.684c4.081,0.719,7.968-2.01,8.684-6.089 c2.084-11.864-1.451-25.423-9.697-37.199c-6.618-9.451-15.519-16.576-25.065-20.061c-10.333-3.772-20.665-2.849-28.349,2.532 c-15.479,10.839-16.27,35.519-1.798,56.188c8.246,11.776,19.778,19.734,31.639,21.835c0.443,0.078,0.882,0.116,1.317,0.116 c3.568,0,6.732-2.558,7.376-6.193c0.722-4.079-1.999-7.971-6.077-8.693c-7.86-1.392-16.073-7.25-21.968-15.668 C116.188,194.184,115.325,178.02,123.628,172.206z"/> <path d="M322.519,223.171c-4.079,0.723-6.8,4.615-6.077,8.693c0.644,3.636,3.807,6.193,7.376,6.193 c0.435,0,0.874-0.038,1.316-0.116c11.861-2.101,23.394-10.06,31.64-21.835c6.618-9.451,10.268-20.252,10.277-30.415 c0.011-10.999-4.391-20.392-12.075-25.773c-15.479-10.84-38.941-3.14-53.414,17.528c-8.246,11.777-11.78,25.335-9.696,37.199 c0.717,4.08,4.607,6.81,8.684,6.089c4.08-0.716,6.807-4.604,6.09-8.684c-1.381-7.861,1.314-17.581,7.21-26.001 c9.326-13.319,24.221-19.659,32.523-13.845c4.949,3.465,5.683,9.928,5.679,13.472c-0.006,7.014-2.764,14.969-7.564,21.825 C338.591,215.921,330.379,221.779,322.519,223.171z"/> <path d="M279.268,156.972c-3.586,2.074-4.812,6.662-2.737,10.247c1.39,2.403,3.909,3.747,6.499,3.747 c1.274,0,2.565-0.325,3.748-1.009c10.428-6.031,18.542-17.454,22.263-31.34c6.53-24.371-2.653-47.293-20.906-52.184 c-9.063-2.426-19.087,0.239-27.505,7.317c-7.778,6.54-13.707,16.279-16.692,27.423c-3.722,13.886-2.405,27.835,3.61,38.272 c2.069,3.588,6.654,4.82,10.243,2.753c3.589-2.069,4.821-6.655,2.753-10.243c-3.986-6.917-4.778-16.972-2.118-26.9 c2.166-8.084,6.488-15.31,11.856-19.824c2.714-2.28,8.136-5.874,13.97-4.309c9.792,2.623,14.509,18.108,10.301,33.813 C291.891,144.662,286.178,152.975,279.268,156.972z"/> </g> </g>
</svg>